<svg width="145" height="62" viewBox="0 0 145 62" fill="none" xmlns="http://www.w3.org/2000/svg">
    <g clip-path="url(#clip0)">
        <path d="M21.6614 0C9.67848 0 0 9.63347 0 21.5606C0 27.5242 2.48166 33.2055 5.24694 38.4986C9.67848 46.897 15.4572 54.8014 21.6259 62.0353C27.7946 54.8014 33.6088 46.897 38.0049 38.4986C40.7702 33.2055 43.2518 27.5242 43.2518 21.5606C43.2873 9.63347 33.6088 0 21.6614 0ZM26.9083 34.8287C26.6601 34.9346 26.412 35.0051 26.1993 35.111C25.0293 35.4991 23.824 35.7462 22.5477 35.8167C22.2641 35.852 21.945 35.852 21.6614 35.852C19.4988 35.852 17.4425 35.358 15.599 34.5111C10.7066 32.2527 7.33863 27.3125 7.33863 21.5606C7.33863 13.6915 13.7555 7.3045 21.6614 7.3045C29.5672 7.3045 35.9841 13.6915 35.9841 21.5606C35.9841 27.5595 32.2262 32.7114 26.9083 34.8287Z" fill="#00A2CE"/>
        <path d="M86.7518 20.0784C85.7946 19.2315 84.5892 18.7728 83.0648 18.7728C82.0721 18.7728 81.1858 18.9492 80.4058 19.3374C79.6259 19.7255 79.0232 20.2901 78.5623 21.0665V19.0904H74.6626V32.8172H79.0587V25.0539C79.0587 24.2071 79.2714 23.5366 79.7322 23.0779C80.1931 22.6191 80.7604 22.3721 81.434 22.3721C82.9584 22.3721 83.7384 23.2896 83.7384 25.0892V32.8525H88.1345V24.0306C88.1699 22.2662 87.709 20.9606 86.7518 20.0784ZM56.1565 19.655C55.4829 20.0784 54.9511 20.7136 54.5611 21.5605V19.1257H50.6613V32.8525H55.0574V26.042C55.0574 23.9248 56.121 22.8661 58.2481 22.8661C58.6027 22.8661 58.8863 22.9014 59.1699 22.9367V19.1257C58.9217 19.0551 58.6381 19.0198 58.319 19.0198C57.5745 19.0198 56.83 19.2315 56.1565 19.655ZM28.0428 19.0904L28.8582 15.9498L26.0929 16.9731C25.242 16.1615 24.3203 15.3852 23.3276 14.6794C23.3276 14.6794 23.2922 14.6794 23.2922 14.6442C23.2567 14.6089 23.2567 14.6089 23.2212 14.5736C22.4413 14.009 21.4486 13.6914 20.4205 13.6914C17.7616 13.7267 15.599 15.8792 15.599 18.5611V34.4757C17.4425 35.3226 19.4988 35.8166 21.6613 35.8166C21.945 35.8166 22.264 35.8166 22.5477 35.7813C23.8239 35.7107 25.0293 35.4637 26.1992 35.0756C26.4474 35.005 26.6956 34.8991 26.9437 34.8286C29.8508 33.5935 31.9071 30.6999 31.9071 27.3476C31.9071 26.0773 31.6234 24.9128 31.1271 23.8542C30.2763 22.1604 29.2481 20.5724 28.0428 19.0904ZM95.2249 15.244H90.8288V19.1257H88.7726V22.6544H90.8288V27.7358C90.8288 29.4649 91.2188 30.7705 92.0342 31.6527C92.8142 32.5702 94.0904 32.9936 95.8631 32.9936C96.3948 32.9936 96.7848 32.9936 97.0684 32.9583C97.3521 32.923 97.6711 32.8878 98.0966 32.7819V29.2884C97.8129 29.359 97.4584 29.359 96.9975 29.359C96.3948 29.359 95.934 29.2179 95.6503 28.9003C95.3667 28.5827 95.2249 28.1592 95.2249 27.5594V22.6191H98.0966V19.0904H95.2249V15.244ZM70.1956 19.7255C69.132 19.1257 67.8912 18.8081 66.4731 18.8081C65.055 18.8081 63.8142 19.1257 62.7506 19.7255C61.687 20.3607 60.8716 21.2076 60.2689 22.3015C59.6662 23.3954 59.3826 24.6658 59.3826 26.042C59.3826 27.4182 59.6662 28.6533 60.2335 29.7119C60.8007 30.7705 61.6161 31.6174 62.6797 32.2526C63.7433 32.8525 65.0195 33.1701 66.5085 33.1701C68.2457 33.1701 69.7347 32.7819 70.9046 31.9703C72.0745 31.1587 72.8545 30.1353 73.1736 28.8297H68.8484C68.4584 29.6413 67.7494 30.0295 66.6503 30.0295C65.7995 30.0295 65.1613 29.8177 64.665 29.359C64.1687 28.9003 63.8496 28.1592 63.7433 27.1006H73.4926L73.5281 25.9714C73.5281 24.5599 73.2445 23.3249 72.6772 22.231C72.0745 21.1723 71.2591 20.3254 70.1956 19.7255ZM63.7787 24.5246C63.956 23.6777 64.275 23.0426 64.7359 22.5838C65.1968 22.1604 65.764 21.9487 66.4731 21.9487C67.2176 21.9487 67.8203 22.1957 68.2457 22.6544C68.6711 23.1131 68.9193 23.7483 69.0256 24.5246H63.7787ZM140.568 13.7267V20.5019C139.576 19.3727 138.229 18.8081 136.527 18.8081C135.428 18.8081 134.4 19.0904 133.478 19.6197C132.556 20.1843 131.812 20.9959 131.244 22.0545C130.677 23.1484 130.394 24.4541 130.394 25.9714C130.394 27.4535 130.677 28.7238 131.28 29.8178C131.883 30.9117 132.663 31.7233 133.62 32.2879C134.577 32.8525 135.605 33.1348 136.704 33.1348C138.76 33.1348 140.214 32.3584 141.1 30.8058V32.7819H145V13.7267H140.568ZM139.788 28.7238C139.257 29.4296 138.583 29.7472 137.732 29.7472C136.881 29.7472 136.172 29.3943 135.641 28.7238C135.109 28.0181 134.825 27.1359 134.825 25.9714C134.825 24.8069 135.109 23.8895 135.641 23.219C136.172 22.5485 136.881 22.1957 137.768 22.1957C138.619 22.1957 139.292 22.5485 139.824 23.219C140.356 23.8895 140.604 24.8069 140.604 25.9714C140.568 27.1359 140.32 28.0534 139.788 28.7238ZM127.097 19.655C126.423 20.0784 125.891 20.7136 125.501 21.5605V19.1257H121.601V32.8525H125.998V26.042C125.998 23.9248 127.061 22.8661 129.188 22.8661C129.543 22.8661 129.826 22.9014 130.11 22.9367V19.1257C129.862 19.0551 129.578 19.0198 129.259 19.0198C128.55 19.0198 127.806 19.2315 127.097 19.655ZM111.072 19.6197C110.15 19.0551 109.122 18.8081 108.023 18.8081C106.286 18.8081 104.939 19.3727 103.982 20.5019V13.7267H99.5855V32.8525H103.521V31.0881C104.017 31.7938 104.62 32.2879 105.329 32.6407C106.073 32.9936 106.889 33.1701 107.81 33.1701C108.91 33.1701 109.938 32.8878 110.895 32.3232C111.852 31.7586 112.632 30.9117 113.235 29.853C113.837 28.7591 114.121 27.4888 114.121 26.0067C114.121 24.4541 113.837 23.1484 113.27 22.0898C112.738 20.9959 111.994 20.1843 111.072 19.6197ZM108.874 28.7238C108.342 29.4296 107.633 29.7472 106.782 29.7472C105.932 29.7472 105.258 29.3943 104.726 28.7238C104.194 28.0181 103.946 27.1359 103.946 25.9714C103.946 24.8069 104.194 23.8895 104.726 23.219C105.258 22.5485 105.932 22.1957 106.782 22.1957C107.669 22.1957 108.342 22.5485 108.91 23.219C109.441 23.8895 109.725 24.8069 109.725 25.9714C109.689 27.1359 109.406 28.0534 108.874 28.7238ZM117.418 12.7739C116.071 12.7739 114.936 13.8678 114.936 15.244C114.936 16.585 116.035 17.7142 117.418 17.7142C118.765 17.7142 119.9 16.6203 119.9 15.244C119.9 13.8678 118.801 12.7739 117.418 12.7739ZM115.22 32.8525H119.616V19.1257H115.22V32.8525Z" fill="#E71C77"/>
        <path d="M21.1296 19.1256C21.8032 19.1256 22.3349 18.5963 22.3349 17.9258C22.3349 17.2554 21.8032 16.7261 21.1296 16.7261C20.456 16.7261 19.9242 17.2554 19.9242 17.9258C19.9242 18.5963 20.456 19.1256 21.1296 19.1256ZM22.5477 35.7813C22.264 35.8166 21.945 35.8166 21.6613 35.8166C19.4988 35.8166 17.4425 35.3225 15.599 34.4756V42.2389C17.5134 42.8035 19.5697 43.0858 21.6613 43.0858C22.7604 43.0858 23.8594 43.0152 24.8875 42.8388L22.5477 35.7813Z" fill="#3B316E"/>
    </g>
    <defs>
        <clipPath id="clip0">
            <rect width="145" height="62" fill="white"/>
        </clipPath>
    </defs>
</svg>
