<svg width="16" height="16" viewBox="0 0 16 16" fill="none" xmlns="http://www.w3.org/2000/svg">
<g clip-path="url(#clip0_72_157)">
<path d="M8.0468 15.3633C8.04639 15.7076 7.76719 15.9864 7.42302 15.9864L3.742 15.9823C1.67897 15.9823 0 14.3034 0 12.2396V3.75623C0 1.69252 1.67897 0.0135498 3.74268 0.0135498H12.2261C14.2898 0.0135498 15.9688 1.69252 15.9688 3.75623V7.09346C15.9381 7.92022 14.7516 7.91959 14.7212 7.09346V3.75623C14.7212 2.38042 13.6019 1.26111 12.2261 1.26111H3.74268C2.36687 1.26111 1.24756 2.38042 1.24756 3.75623V12.2396C1.24756 13.6155 2.36687 14.7348 3.74268 14.7348L7.4237 14.7389C7.76822 14.7392 8.0472 15.0188 8.0468 15.3633ZM16 12.6451V13.4872C16 14.863 14.8807 15.9824 13.5049 15.9824H11.3528C9.97703 15.9824 8.85771 14.863 8.85771 13.4872V12.6451C8.85771 11.5416 9.57812 10.6037 10.5731 10.2755V9.46385C10.6675 6.98405 14.2223 6.98592 14.3158 9.46385V10.286C15.2946 10.6234 16 11.5531 16 12.6451ZM11.8207 9.46385V10.15H13.0682V9.46385C13.0368 8.63725 11.8518 8.63788 11.8207 9.46385ZM14.7524 12.6451C14.7524 11.9572 14.1928 11.3976 13.5049 11.3976H11.3528C10.6649 11.3976 10.1053 11.9572 10.1053 12.6451V13.4872C10.1053 14.1751 10.6649 14.7348 11.3528 14.7348H13.5049C14.1928 14.7348 14.7524 14.1751 14.7524 13.4872V12.6451ZM12.4445 12.3021C12.0138 12.3021 11.6647 12.6512 11.6647 13.0818C11.703 14.1149 13.1861 14.1147 13.2242 13.0818C13.2242 12.6512 12.8751 12.3021 12.4445 12.3021Z" fill="#1C1F29"/>
<path d="M3.11984 4.66162C2.2937 4.63125 2.29308 3.44472 3.11984 3.41406H12.8508C13.6769 3.44444 13.6776 4.63096 12.8508 4.66162H3.11984Z" fill="#004AAD"/>
<path d="M6.58185 7.59342C7.01247 7.59342 7.36157 7.24432 7.36157 6.8137C7.36157 6.38307 7.01247 6.03397 6.58185 6.03397C5.54896 6.07205 5.54868 7.55519 6.58185 7.59342Z" fill="#004AAD"/>
<path d="M2.99511 6.8137C2.99511 6.38307 3.34421 6.03397 3.77484 6.03397C4.20546 6.03397 4.55456 6.38307 4.55456 6.8137C4.51648 7.84658 3.03335 7.84686 2.99511 6.8137Z" fill="#004AAD"/>
<path d="M8.60913 6.8137C8.60913 6.38307 8.95823 6.03397 9.38886 6.03397C9.81949 6.03397 10.1686 6.38307 10.1686 6.8137C10.1305 7.84658 8.64737 7.84686 8.60913 6.8137Z" fill="#004AAD"/>
</g>
<defs>
<clipPath id="clip0_72_157">
<rect width="16" height="16" fill="white"/>
</clipPath>
</defs>
</svg>
