<svg width="25" height="21" viewBox="0 0 35 31" fill="none" xmlns="http://www.w3.org/2000/svg">
<path d="M33.5416 25.3333C33.5416 26.1069 33.2344 26.8487 32.6874 27.3957C32.1404 27.9427 31.3985 28.25 30.625 28.25H4.37498C3.60143 28.25 2.85957 27.9427 2.31258 27.3957C1.7656 26.8487 1.45831 26.1069 1.45831 25.3333V9.29167C1.45831 8.51812 1.7656 7.77625 2.31258 7.22927C2.85957 6.68229 3.60143 6.375 4.37498 6.375H10.2083L13.125 2H21.875L24.7916 6.375H30.625C31.3985 6.375 32.1404 6.68229 32.6874 7.22927C33.2344 7.77625 33.5416 8.51812 33.5416 9.29167V25.3333Z" stroke="#1E1E1E" stroke-width="4" stroke-linecap="round" stroke-linejoin="round"/>
<path d="M17.5 22.4167C20.7216 22.4167 23.3333 19.805 23.3333 16.5833C23.3333 13.3617 20.7216 10.75 17.5 10.75C14.2783 10.75 11.6666 13.3617 11.6666 16.5833C11.6666 19.805 14.2783 22.4167 17.5 22.4167Z" stroke="#1E1E1E" stroke-width="4" stroke-linecap="round" stroke-linejoin="round"/>
</svg>
