<svg width="16" height="16" viewBox="0 0 16 16" fill="none" xmlns="http://www.w3.org/2000/svg">
<path d="M14.125 1.125H4.375C3.34113 1.125 2.5 1.96613 2.5 3C2.5 3.34519 2.77981 3.625 3.125 3.625C3.47019 3.625 3.75 3.34519 3.75 3C3.75 2.65538 4.03038 2.375 4.375 2.375H14.125C14.4696 2.375 14.75 2.65538 14.75 3V9.25C14.75 9.59463 14.4696 9.875 14.125 9.875H13.5V6.75C13.5 5.71613 12.6589 4.875 11.625 4.875H1.875C0.841125 4.875 0 5.71613 0 6.75V13C0 14.0339 0.841125 14.875 1.875 14.875H11.625C12.6589 14.875 13.5 14.0339 13.5 13V11.125H14.125C15.1589 11.125 16 10.2839 16 9.25V3C16 1.96613 15.1589 1.125 14.125 1.125ZM12.25 13C12.25 13.3446 11.9696 13.625 11.625 13.625H1.875C1.53038 13.625 1.25 13.3446 1.25 13V6.75C1.25 6.40538 1.53038 6.125 1.875 6.125H11.625C11.9696 6.125 12.25 6.40538 12.25 6.75V7.375H3.125C2.77981 7.375 2.5 7.65481 2.5 8C2.5 8.34519 2.77981 8.625 3.125 8.625H12.25V13Z" fill="#1C1F29"/>
<path d="M10.375 12.375H7.875C7.52981 12.375 7.25 12.0952 7.25 11.75C7.25 11.4048 7.52981 11.125 7.875 11.125H10.375C10.7202 11.125 11 11.4048 11 11.75C11 12.0952 10.7202 12.375 10.375 12.375Z" fill="#004AAD"/>
</svg>
