<svg width="34" height="34" viewBox="0 0 34 34" fill="none" xmlns="http://www.w3.org/2000/svg">
<g clip-path="url(#clip0_72_76)">
<path d="M17 28.6875C19.197 28.6875 20.9844 26.9001 20.9844 24.7031C20.9844 22.5061 19.197 20.7188 17 20.7188C14.803 20.7188 13.0156 22.5061 13.0156 24.7031C13.0156 26.9001 14.803 28.6875 17 28.6875ZM17 23.375C17.7323 23.375 18.3281 23.9708 18.3281 24.7031C18.3281 25.4355 17.7323 26.0312 17 26.0312C16.2677 26.0312 15.6719 25.4355 15.6719 24.7031C15.6719 23.9708 16.2677 23.375 17 23.375Z" fill="#004AAD"/>
<path d="M9.03125 7.96875C9.76475 7.96875 10.3594 7.37413 10.3594 6.64062C10.3594 5.90712 9.76475 5.3125 9.03125 5.3125C8.29775 5.3125 7.70312 5.90712 7.70312 6.64062C7.70312 7.37413 8.29775 7.96875 9.03125 7.96875Z" fill="#FF914D"/>
<path d="M24.9688 13.0156C25.7023 13.0156 26.2969 12.421 26.2969 11.6875C26.2969 10.954 25.7023 10.3594 24.9688 10.3594C24.2352 10.3594 23.6406 10.954 23.6406 11.6875C23.6406 12.421 24.2352 13.0156 24.9688 13.0156Z" fill="#FF914D"/>
<path d="M27.3594 15.4062H6.64062C2.97892 15.4062 0 18.3852 0 22.0469V27.3594C0 31.021 2.97892 34 6.64062 34H27.3594C31.0211 34 34 31.021 34 27.3594V22.0469C34 18.3852 31.0211 15.4062 27.3594 15.4062ZM31.3438 27.3594C31.3438 29.5564 29.5564 31.3438 27.3594 31.3438H6.64062C4.44364 31.3438 2.65625 29.5564 2.65625 27.3594V22.0469C2.65625 19.8499 4.44364 18.0625 6.64062 18.0625H27.3594C29.5564 18.0625 31.3438 19.8499 31.3438 22.0469V27.3594Z" fill="#004AAD"/>
<path d="M24.7031 20.7188C23.9696 20.7188 23.375 21.3134 23.375 22.0469C23.375 22.7804 23.9696 23.375 24.7031 23.375C25.4355 23.375 26.0312 23.9708 26.0312 24.7031C26.0312 25.4355 25.4355 26.0312 24.7031 26.0312C23.9696 26.0312 23.375 26.6259 23.375 27.3594C23.375 28.0929 23.9696 28.6875 24.7031 28.6875C26.9001 28.6875 28.6875 26.9001 28.6875 24.7031C28.6875 22.5061 26.9001 20.7188 24.7031 20.7188Z" fill="#004AAD"/>
<path d="M9.29688 23.375C10.0304 23.375 10.625 22.7804 10.625 22.0469C10.625 21.3134 10.0304 20.7188 9.29688 20.7188C7.09989 20.7188 5.3125 22.5061 5.3125 24.7031C5.3125 26.9001 7.09989 28.6875 9.29688 28.6875C10.0304 28.6875 10.625 28.0929 10.625 27.3594C10.625 26.6259 10.0304 26.0312 9.29688 26.0312C8.56455 26.0312 7.96875 25.4355 7.96875 24.7031C7.96875 23.9708 8.56455 23.375 9.29688 23.375Z" fill="#004AAD"/>
<path d="M9.03125 13.2812C12.693 13.2812 15.6719 10.3023 15.6719 6.64062C15.6719 2.97898 12.693 0 9.03125 0C5.36954 0 2.39062 2.97898 2.39062 6.64062C2.39062 10.3023 5.36954 13.2812 9.03125 13.2812ZM9.03125 2.65625C11.2282 2.65625 13.0156 4.44364 13.0156 6.64062C13.0156 8.83761 11.2282 10.625 9.03125 10.625C6.83427 10.625 5.04688 8.83761 5.04688 6.64062C5.04688 4.44364 6.83427 2.65625 9.03125 2.65625Z" fill="#FF914D"/>
<path d="M19.6562 13.0156C20.3898 13.0156 20.9844 12.421 20.9844 11.6875C20.9844 9.49052 22.7718 7.70312 24.9688 7.70312C27.1657 7.70312 28.9531 9.49052 28.9531 11.6875C28.9531 12.421 29.5477 13.0156 30.2812 13.0156C31.0148 13.0156 31.6094 12.421 31.6094 11.6875C31.6094 8.02586 28.6305 5.04688 24.9688 5.04688C21.307 5.04688 18.3281 8.02586 18.3281 11.6875C18.3281 12.421 18.9227 13.0156 19.6562 13.0156Z" fill="#FF914D"/>
</g>
<defs>
<clipPath id="clip0_72_76">
<rect width="34" height="34" fill="white"/>
</clipPath>
</defs>
</svg>
