<svg width="34" height="34" viewBox="0 0 34 34" fill="none" xmlns="http://www.w3.org/2000/svg">
<g clip-path="url(#clip0_72_67)">
<path d="M34 7.96875V17.5977C34 18.3312 33.4054 18.9258 32.6719 18.9258C31.9384 18.9258 31.3438 18.3312 31.3438 17.5977V7.96875C31.3438 5.03944 28.9606 2.65625 26.0312 2.65625H7.96875C5.03944 2.65625 2.65625 5.03944 2.65625 7.96875V26.0312C2.65625 28.9606 5.03944 31.3438 7.96875 31.3438H18.0293C18.7628 31.3438 19.3574 31.9384 19.3574 32.6719C19.3574 33.4054 18.7628 34 18.0293 34H7.96875C3.57478 34 0 30.4252 0 26.0312V7.96875C0 3.57478 3.57478 0 7.96875 0H26.0312C30.4252 0 34 3.57478 34 7.96875ZM34 25.1771C34 25.1861 33.9999 25.1951 33.9997 25.204C33.941 28.112 32.2883 30.8632 29.2203 33.1604C28.4771 33.7169 27.5861 33.9952 26.6953 33.9953C25.8043 33.9953 24.9136 33.717 24.1702 33.1603C21.1023 30.8632 19.4497 28.112 19.3909 25.204C19.3908 25.195 19.3906 25.186 19.3906 25.1771C19.3906 22.792 21.327 20.8516 23.707 20.8516C24.8657 20.8516 25.9192 21.3104 26.6953 22.056C27.4715 21.3104 28.5249 20.8516 29.6836 20.8516C32.0637 20.8516 34 22.792 34 25.1771ZM31.3438 25.1648C31.3371 24.25 30.595 23.5078 29.6836 23.5078C28.7682 23.5078 28.0234 24.2526 28.0234 25.168C28.0234 25.9015 27.4288 26.4961 26.6953 26.4961C25.9618 26.4961 25.3672 25.9015 25.3672 25.168C25.3672 24.2526 24.6224 23.5078 23.707 23.5078C22.7957 23.5078 22.0535 24.25 22.0469 25.1648C22.1067 27.7607 24.0994 29.789 25.7623 31.0341C26.3117 31.4455 27.079 31.4454 27.6283 31.0342C29.2912 29.789 31.2839 27.7607 31.3438 25.1648Z" fill="#004AAD"/>
<path d="M26.4297 10.4922H12.8828C12.1493 10.4922 11.5547 9.89759 11.5547 9.16406C11.5547 8.43054 12.1493 7.83594 12.8828 7.83594H26.4297C27.1632 7.83594 27.7578 8.43054 27.7578 9.16406C27.7578 9.89759 27.1632 10.4922 26.4297 10.4922Z" fill="#FF914D"/>
<path d="M26.4297 15.6719C27.1632 15.6719 27.7578 16.2665 27.7578 17C27.7578 17.7335 27.1632 18.3281 26.4297 18.3281H12.8828C12.1493 18.3281 11.5547 17.7335 11.5547 17C11.5547 16.2665 12.1493 15.6719 12.8828 15.6719H26.4297Z" fill="#FF914D"/>
<path d="M7.57031 7.57031C8.48718 7.57031 9.23047 8.3136 9.23047 9.23047C9.23047 10.1473 8.48718 10.8906 7.57031 10.8906C6.65344 10.8906 5.91016 10.1473 5.91016 9.23047C5.91016 8.3136 6.65344 7.57031 7.57031 7.57031Z" fill="#FF914D"/>
<path d="M7.57031 15.3398C8.48718 15.3398 9.23047 16.0831 9.23047 17C9.23047 17.9169 8.48718 18.6602 7.57031 18.6602C6.65344 18.6602 5.91016 17.9169 5.91016 17C5.91016 16.0831 6.65344 15.3398 7.57031 15.3398Z" fill="#FF914D"/>
<path d="M11.5547 24.832C11.5547 24.0985 12.1493 23.5039 12.8828 23.5039H15.4727C16.2062 23.5039 16.8008 24.0985 16.8008 24.832C16.8008 25.5656 16.2062 26.1602 15.4727 26.1602H12.8828C12.1493 26.1602 11.5547 25.5656 11.5547 24.832Z" fill="#FF914D"/>
<path d="M5.91016 24.832C5.91016 23.9152 6.65344 23.1719 7.57031 23.1719C8.48718 23.1719 9.23047 23.9152 9.23047 24.832C9.23047 25.7489 8.48718 26.4922 7.57031 26.4922C6.65344 26.4922 5.91016 25.7489 5.91016 24.832Z" fill="#FF914D"/>
</g>
<defs>
<clipPath id="clip0_72_67">
<rect width="34" height="34" fill="white"/>
</clipPath>
</defs>
</svg>
