<svg width="32" height="32" viewBox="0 0 32 32" fill="none" xmlns="http://www.w3.org/2000/svg">
<path d="M18.2689 1.74968L18.4503 1.91968L32 15.231L30.5468 16.7091L28.681 14.8765L28.682 28.9269C28.682 30.0194 27.8362 30.915 26.7634 30.9938L26.609 31H5.87802C4.7855 31 3.88992 30.1542 3.81011 29.0814L3.80493 28.9269L3.80389 14.8776L1.94018 16.7091L0.486938 15.231L14.0222 1.93315C15.1758 0.755636 17.0364 0.690334 18.2689 1.74968ZM15.5884 3.30865L15.4889 3.39883L5.87698 12.8407L5.87802 28.9269L11.0597 28.9259L11.0608 18.5614C11.0608 17.4689 11.9066 16.5733 12.9794 16.4935L13.1338 16.4883H19.3531C20.4456 16.4883 21.3412 17.3342 21.421 18.407L21.4262 18.5614L21.4252 28.9259L26.609 28.9269L26.6079 12.8397L16.9691 3.36981C16.5918 2.99976 16.003 2.97696 15.5884 3.30865ZM19.3531 18.5614H13.1338L13.1328 28.9259H19.3521L19.3531 18.5614Z" fill="#222222"/>
</svg>
