<svg width="16" height="16" viewBox="0 0 16 16" fill="none" xmlns="http://www.w3.org/2000/svg">
<g clip-path="url(#clip0_72_172)">
<path d="M4.375 13.5C4.04113 13.5 3.72722 13.37 3.49113 13.1339L2.86613 12.5089C2.63003 12.2728 2.5 11.9589 2.5 11.625C2.5 11.2911 2.63 10.9772 2.86609 10.7411L3.49109 10.1161C3.72716 9.88003 4.04106 9.75 4.375 9.75C4.70887 9.75 5.02278 9.88003 5.25887 10.1161L5.88391 10.7411C6.12 10.9772 6.25 11.2911 6.25 11.625C6.25 11.9589 6.12 12.2728 5.88391 12.5089L5.25891 13.1339C5.25888 13.1339 5.25884 13.1339 5.25884 13.1339C5.02272 13.37 4.70884 13.5 4.375 13.5ZM4.375 11L3.75 11.625L4.37503 12.25L5 11.625L4.375 11Z" fill="#004AAD"/>
<path d="M14.125 3.75H12.3929C12.4622 3.55444 12.5 3.34403 12.5 3.125C12.5 2.09113 11.6589 1.25 10.625 1.25H9.97431C9.81863 1.25 9.66134 1.16997 9.54288 1.03047C9.14372 0.560375 8.46528 0 7.5 0C6.53472 0 5.85628 0.560375 5.45709 1.03047C5.33866 1.16997 5.18141 1.25 5.02569 1.25H3.125C2.09113 1.25 1.25 2.09113 1.25 3.125V4.125C1.25 5.15887 2.09113 6 3.125 6H3.75V7.29484C1.63266 7.59903 0 9.42481 0 11.625C0 14.0374 1.96263 16 4.375 16C6.78737 16 8.75 14.0374 8.75 11.625C8.75 9.42481 7.11734 7.59903 5 7.29484V2.5H5.02569C5.549 2.5 6.05356 2.25925 6.40994 1.83953C6.63831 1.57059 7.01281 1.25 7.5 1.25C7.98719 1.25 8.36169 1.57059 8.59003 1.83953C8.94644 2.25925 9.451 2.5 9.97431 2.5H10.625C10.9696 2.5 11.25 2.78038 11.25 3.125C11.25 3.46962 10.9696 3.75 10.625 3.75H9.375C9.02981 3.75 8.75 4.02981 8.75 4.375C8.75 4.72019 9.02981 5 9.375 5H14.125C14.4696 5 14.75 5.28038 14.75 5.625C14.75 5.96962 14.4696 6.25 14.125 6.25H8.71519C8.42559 6.25 8.13566 6.18156 7.87666 6.05206L7.15453 5.691C6.84569 5.53662 6.47031 5.66175 6.316 5.9705C6.16166 6.27925 6.28675 6.65466 6.5955 6.80903L7.31763 7.17009C7.74931 7.38591 8.23253 7.5 8.71519 7.5H14.125C15.1589 7.5 16 6.65887 16 5.625C16 4.59113 15.1589 3.75 14.125 3.75ZM7.5 11.625C7.5 13.3481 6.09816 14.75 4.375 14.75C2.65184 14.75 1.25 13.3481 1.25 11.625C1.25 9.90187 2.65184 8.5 4.375 8.5C6.09816 8.5 7.5 9.90187 7.5 11.625ZM3.75 4.75H3.125C2.78038 4.75 2.5 4.46962 2.5 4.125V3.125C2.5 2.78038 2.78038 2.5 3.125 2.5H3.75V4.75Z" fill="#1C1F29"/>
</g>
<defs>
<clipPath id="clip0_72_172">
<rect width="16" height="16" fill="white"/>
</clipPath>
</defs>
</svg>
