<svg width="20" height="20" viewBox="0 0 20 20" fill="none" xmlns="http://www.w3.org/2000/svg">
<path d="M15.625 20H3.125C1.40188 20 0 18.5981 0 16.875V4.375C0 2.65188 1.40188 1.25 3.125 1.25H13.2812C13.7127 1.25 14.0625 1.59977 14.0625 2.03125C14.0625 2.46273 13.7127 2.8125 13.2812 2.8125H3.125C2.26344 2.8125 1.5625 3.51344 1.5625 4.375V16.875C1.5625 17.7366 2.26344 18.4375 3.125 18.4375H15.625C16.4866 18.4375 17.1875 17.7366 17.1875 16.875V6.71875C17.1875 6.28727 17.5373 5.9375 17.9688 5.9375C18.4002 5.9375 18.75 6.28727 18.75 6.71875V16.875C18.75 18.5981 17.3481 20 15.625 20Z" fill="white"/>
<path d="M17.6562 0C16.3639 0 15.3125 1.05141 15.3125 2.34375C15.3125 2.70512 15.3948 3.04762 15.5416 3.35359L14.2913 4.60383C13.9862 4.90895 13.9862 5.40359 14.2913 5.70867C14.5964 6.01375 15.0911 6.01379 15.3962 5.70867L16.6464 4.45844C16.9524 4.60516 17.2949 4.6875 17.6563 4.6875C18.9486 4.6875 20 3.63609 20 2.34375C20 1.05141 18.9486 0 17.6562 0ZM17.6562 3.125C17.2255 3.125 16.875 2.77453 16.875 2.34375C16.875 1.91297 17.2255 1.5625 17.6562 1.5625C18.087 1.5625 18.4375 1.91297 18.4375 2.34375C18.4375 2.77453 18.087 3.125 17.6562 3.125Z" fill="white"/>
<path d="M7.03125 5.9375H5.46875C5.03727 5.9375 4.6875 5.58773 4.6875 5.15625C4.6875 4.72477 5.03727 4.375 5.46875 4.375H7.03125C7.46273 4.375 7.8125 4.72477 7.8125 5.15625C7.8125 5.58773 7.46273 5.9375 7.03125 5.9375Z" fill="white"/>
<path d="M13.2812 9.0625H5.46875C5.03727 9.0625 4.6875 8.71273 4.6875 8.28125C4.6875 7.84977 5.03727 7.5 5.46875 7.5H13.2812C13.7127 7.5 14.0625 7.84977 14.0625 8.28125C14.0625 8.71273 13.7127 9.0625 13.2812 9.0625Z" fill="white"/>
<path d="M13.2812 12.1875H5.46875C5.03727 12.1875 4.6875 11.8377 4.6875 11.4062C4.6875 10.9748 5.03727 10.625 5.46875 10.625H13.2812C13.7127 10.625 14.0625 10.9748 14.0625 11.4062C14.0625 11.8377 13.7127 12.1875 13.2812 12.1875Z" fill="white"/>
<path d="M13.2812 15.3125H5.46875C5.03727 15.3125 4.6875 14.9627 4.6875 14.5312C4.6875 14.0998 5.03727 13.75 5.46875 13.75H13.2812C13.7127 13.75 14.0625 14.0998 14.0625 14.5312C14.0625 14.9627 13.7127 15.3125 13.2812 15.3125Z" fill="white"/>
</svg>
