<svg width="33" height="32" viewBox="0 0 33 32" fill="none" xmlns="http://www.w3.org/2000/svg">
<rect x="0.875" y="0.875" width="18.6176" height="30.25" rx="1.4453" stroke="#222222" stroke-width="1.75"/>
<circle cx="6.48827" cy="6.57776" r="1" fill="#222222"/>
<circle cx="6.48827" cy="11.2323" r="1" fill="#222222"/>
<circle cx="6.48827" cy="15.8869" r="1" fill="#222222"/>
<circle cx="13.4867" cy="6.57776" r="1" fill="#222222"/>
<circle cx="13.4867" cy="11.2323" r="1" fill="#FF914D"/>
<circle cx="25.0434" cy="11.2323" r="1" fill="#222222"/>
<circle cx="13.4867" cy="15.8869" r="1" fill="#222222"/>
<circle cx="25.0434" cy="15.8729" r="1" fill="#222222"/>
<path d="M8.08711 23.0353H12.2033C13.0015 23.0353 13.6486 23.6824 13.6486 24.4807V31.1252H6.6418V24.4807C6.6418 23.6824 7.2889 23.0353 8.08711 23.0353Z" stroke="#222222" stroke-width="1.75"/>
<path d="M29.8521 5.7514C31.1335 5.7514 32.1724 6.79025 32.1724 8.07172V29.6801L32.1606 29.9174C32.0495 31.0093 31.1813 31.877 30.0894 31.9877L29.8521 32.0004H16.3374C17.4182 32.0004 18.3236 31.2604 18.5815 30.2602H29.8521C30.1723 30.2602 30.4319 30.0003 30.4321 29.6801V8.07172C30.4321 7.75135 30.1724 7.49164 29.8521 7.49164H18.8638V5.7514H29.8521Z" fill="#222222"/>
</svg>
