<svg width="16" height="16" viewBox="0 0 16 16" fill="none" xmlns="http://www.w3.org/2000/svg">
<g clip-path="url(#clip0_72_180)">
<path d="M12.25 16H3.75C1.68225 16 0 14.3177 0 12.25V7.125C0 5.05725 1.68225 3.375 3.75 3.375H12.25C14.3177 3.375 16 5.05725 16 7.125V12.25C16 14.3177 14.3177 16 12.25 16ZM3.75 4.625C2.3715 4.625 1.25 5.7465 1.25 7.125V12.25C1.25 13.6285 2.3715 14.75 3.75 14.75H12.25C13.6285 14.75 14.75 13.6285 14.75 12.25V7.125C14.75 5.7465 13.6285 4.625 12.25 4.625H3.75ZM6.3125 1.875C6.3125 0.841125 5.47137 0 4.4375 0C3.40363 0 2.5625 0.841125 2.5625 1.875C2.5625 2.22019 2.84231 2.5 3.1875 2.5C3.53269 2.5 3.8125 2.22019 3.8125 1.875C3.8125 1.53038 4.09288 1.25 4.4375 1.25C4.78212 1.25 5.0625 1.53038 5.0625 1.875C5.0625 2.22019 5.34231 2.5 5.6875 2.5C6.03269 2.5 6.3125 2.22019 6.3125 1.875ZM13.5 1.875C13.5 0.841125 12.6589 0 11.625 0C10.5911 0 9.75 0.841125 9.75 1.875C9.75 2.22019 10.0298 2.5 10.375 2.5C10.7202 2.5 11 2.22019 11 1.875C11 1.53038 11.2804 1.25 11.625 1.25C11.9696 1.25 12.25 1.53038 12.25 1.875C12.25 2.22019 12.5298 2.5 12.875 2.5C13.2202 2.5 13.5 2.22019 13.5 1.875Z" fill="#1C1F29"/>
<path d="M8.65625 7.21875V9.78125C8.65625 10.1264 8.37644 10.4062 8.03125 10.4062C7.68606 10.4062 7.40625 10.1264 7.40625 9.78125V7.21875C7.40625 6.87356 7.68606 6.59375 8.03125 6.59375C8.37644 6.59375 8.65625 6.87356 8.65625 7.21875Z" fill="#004AAD"/>
<path d="M7.25 12.0938C7.25 11.6623 7.59978 11.3125 8.03125 11.3125C8.46272 11.3125 8.8125 11.6623 8.8125 12.0938C8.8125 12.5252 8.46272 12.875 8.03125 12.875C7.59978 12.875 7.25 12.5252 7.25 12.0938Z" fill="#004AAD"/>
</g>
<defs>
<clipPath id="clip0_72_180">
<rect width="16" height="16" fill="white"/>
</clipPath>
</defs>
</svg>
