<svg width="27" height="20" viewBox="0 0 27 20" fill="none" xmlns="http://www.w3.org/2000/svg">
<path d="M6.03871 7.90728C5.74335 7.90728 5.4599 7.95232 5.17778 7.99338C5.26917 7.68609 5.36321 7.37351 5.51421 7.09272C5.6652 6.68477 5.90096 6.33113 6.1354 5.97483C6.33143 5.5894 6.67712 5.32848 6.93143 4.99867C7.19765 4.67815 7.56057 4.4649 7.84798 4.19868C8.1301 3.92053 8.49964 3.78146 8.79368 3.58543C9.10096 3.40927 9.36851 3.21457 9.6546 3.12185L10.3685 2.82781L10.9963 2.56689L10.3539 0L9.56321 0.190728C9.31023 0.254304 9.00163 0.328476 8.65063 0.417218C8.29169 0.483443 7.90891 0.6649 7.48242 0.830463C7.06123 1.01854 6.57381 1.1457 6.12083 1.44768C5.6652 1.73642 5.13937 1.97748 4.6758 2.36424C4.22679 2.76291 3.68507 3.10861 3.28507 3.61589C2.84798 4.09007 2.41619 4.58808 2.0811 5.15497C1.69302 5.69536 1.42944 6.28874 1.15129 6.8755C0.899639 7.46225 0.69699 8.06225 0.531427 8.64503C0.21752 9.81324 0.0771222 10.9232 0.0228176 11.8728C-0.0222156 12.8238 0.00427451 13.6146 0.0599036 14.1868C0.0797712 14.457 0.116857 14.7192 0.143347 14.9007L0.17646 15.1232L0.210897 15.1152C0.446475 16.2157 0.988783 17.2269 1.77509 18.032C2.56139 18.8371 3.55956 19.4032 4.65413 19.6647C5.74869 19.9262 6.89493 19.8724 7.96024 19.5097C9.02555 19.147 9.9664 18.4901 10.674 17.6149C11.3815 16.7398 11.8269 15.6823 11.9585 14.5646C12.0901 13.447 11.9026 12.3149 11.4177 11.2994C10.9328 10.2838 10.1703 9.42631 9.21838 8.82602C8.26648 8.22574 7.16408 7.90721 6.03871 7.90728ZM20.6082 7.90728C20.3129 7.90728 20.0294 7.95232 19.7473 7.99338C19.8387 7.68609 19.9327 7.37351 20.0837 7.09272C20.2347 6.68477 20.4705 6.33113 20.7049 5.97483C20.901 5.5894 21.2467 5.32848 21.501 4.99867C21.7672 4.67815 22.1301 4.4649 22.4175 4.19868C22.6996 3.92053 23.0692 3.78146 23.3632 3.58543C23.6705 3.40927 23.938 3.21457 24.2241 3.12185L24.938 2.82781L25.5659 2.56689L24.9235 0L24.1327 0.190728C23.8798 0.254304 23.5712 0.328476 23.2202 0.417218C22.8612 0.483443 22.4784 0.6649 22.052 0.830463C21.6321 1.01987 21.1433 1.1457 20.6904 1.44901C20.2347 1.73775 19.7089 1.97881 19.2453 2.36556C18.7963 2.76424 18.2546 3.10993 17.8546 3.61589C17.4175 4.09007 16.9857 4.58808 16.6506 5.15497C16.2626 5.69536 15.999 6.28874 15.7208 6.8755C15.4692 7.46225 15.2665 8.06225 15.101 8.64503C14.7871 9.81324 14.6467 10.9232 14.5924 11.8728C14.5473 12.8238 14.5738 13.6146 14.6294 14.1868C14.6493 14.457 14.6864 14.7192 14.7129 14.9007L14.746 15.1232L14.7804 15.1152C15.016 16.2157 15.5583 17.2269 16.3446 18.032C17.1309 18.8371 18.1291 19.4032 19.2237 19.6647C20.3182 19.9262 21.4645 19.8724 22.5298 19.5097C23.5951 19.147 24.5359 18.4901 25.2435 17.6149C25.951 16.7398 26.3964 15.6823 26.528 14.5646C26.6596 13.447 26.4721 12.3149 25.9872 11.2994C25.5023 10.2838 24.7398 9.42631 23.7879 8.82602C22.836 8.22574 21.7336 7.90721 20.6082 7.90728Z" fill="#004AAD"/>
</svg>
