<svg width="28" height="19" viewBox="0 0 28 19" fill="none" xmlns="http://www.w3.org/2000/svg">
<path d="M15.2315 11.9212C14.6453 15.2031 17.1653 18.2512 21.3853 18.2512C25.6053 18.2512 27.8909 12.6831 27.129 7.87621C26.4228 3.41872 21.5828 0.626215 18.0784 0.00934009C17.9838 -0.00720236 17.8866 -0.00171723 17.7945 0.025369C17.7023 0.0524552 17.6177 0.100413 17.5471 0.165521C17.4765 0.230629 17.4218 0.311134 17.3874 0.400786C17.3529 0.490439 17.3396 0.586826 17.3484 0.682465L17.4734 2.16121C17.4826 2.29524 17.5357 2.4225 17.6245 2.52329C17.7133 2.62408 17.8328 2.69276 17.9647 2.71871C21.7428 3.35934 23.9909 9.02184 21.6778 8.34371C19.2753 7.64121 15.8178 8.64122 15.2315 11.9212ZM0.0840263 11.9212C0.670277 8.63934 4.1284 7.64309 6.53153 8.34621C8.84403 9.02309 6.59403 3.36059 2.8184 2.72121C2.68655 2.69536 2.56692 2.6267 2.47809 2.5259C2.38927 2.42509 2.3362 2.29777 2.32715 2.16372L2.20215 0.684965C2.19332 0.589326 2.20665 0.49294 2.24111 0.403287C2.27556 0.313635 2.33022 0.23313 2.40083 0.168022C2.47144 0.102914 2.5561 0.054955 2.64825 0.0278688C2.74039 0.000782593 2.83754 -0.00470254 2.93215 0.0118399C6.4359 0.62809 11.2759 3.42121 11.9828 7.87871C12.7447 12.6843 10.459 18.2537 6.23903 18.2537C2.01903 18.2537 -0.501598 15.2037 0.0840263 11.9212Z" fill="#004AAC"/>
</svg>
