<svg width="18" height="18" viewBox="0 0 18 18" fill="none" xmlns="http://www.w3.org/2000/svg">
<g clip-path="url(#clip0_72_188)">
<path d="M9.5625 18H4.21875C1.89253 18 0 16.1075 0 13.7812V4.21875C0 1.89253 1.89253 0 4.21875 0H13.7812C16.1075 0 18 1.89253 18 4.21875V6.29297C17.9629 7.22587 16.6306 7.22517 16.5938 6.29297V4.21875C16.5938 2.66794 15.3321 1.40625 13.7812 1.40625H4.21875C2.66794 1.40625 1.40625 2.66794 1.40625 4.21875V13.7812C1.40625 15.3321 2.66794 16.5938 4.21875 16.5938H9.5625C10.4954 16.6309 10.4947 17.9632 9.5625 18ZM14.8359 4.85156C14.8359 4.46323 14.5211 4.14844 14.1328 4.14844H6.85547C5.92256 4.18556 5.92327 5.51788 6.85547 5.55469H14.1328C14.5211 5.55469 14.8359 5.2399 14.8359 4.85156ZM8.33203 9C8.33203 8.61166 8.01724 8.29688 7.62891 8.29688H6.85547C5.92256 8.334 5.92327 9.66632 6.85547 9.70312H7.62891C8.01724 9.70312 8.33203 9.38834 8.33203 9ZM18 13.201C18 12.4799 17.589 11.8343 16.9721 11.5149L16.7646 10.1891C16.6185 9.1588 16.0461 8.24386 15.1936 7.67827C14.0019 6.86834 12.2637 6.86837 11.072 7.67827C10.2194 8.24397 9.64702 9.15905 9.50101 10.1895L9.29306 11.5302C7.57382 12.4661 8.23071 15.0982 10.1937 15.1172H16.1032C17.1491 15.1172 18 14.2575 18 13.201ZM14.4162 8.85002C14.9352 9.19434 15.2838 9.75572 15.3727 10.3901C15.3733 10.3939 15.3738 10.3976 15.3744 10.4013L15.6465 12.1398C15.692 12.4303 15.9135 12.6619 16.2017 12.7202C16.7848 12.856 16.6814 13.6896 16.1032 13.7109H10.1937C9.62198 13.69 9.51159 12.8722 10.0831 12.7231C10.3636 12.6587 10.5765 12.43 10.6207 12.1456L10.8914 10.4003C10.8919 10.3969 10.8924 10.3935 10.8929 10.3901C10.9818 9.75568 11.3304 9.19434 11.8494 8.84999C12.2109 8.61022 12.6787 8.47266 13.1328 8.47266C13.5869 8.47266 14.0547 8.61022 14.4162 8.85002ZM14.2734 11.8125C14.2734 11.4242 13.9586 11.1094 13.5703 11.1094H12.6211C11.6882 11.1465 11.6889 12.4788 12.6211 12.5156H13.5703C13.9586 12.5156 14.2734 12.2008 14.2734 11.8125ZM13.1848 18C12.2889 18 11.5353 17.3403 11.4318 16.4654C11.3862 16.0797 11.6619 15.7301 12.0475 15.6845C12.4333 15.6389 12.7828 15.9146 12.8283 16.3003C12.8829 16.6891 13.4868 16.6889 13.5412 16.3003C13.5868 15.9147 13.937 15.6389 14.322 15.6845C14.7076 15.7301 14.9833 16.0797 14.9377 16.4653C14.8343 17.3402 14.0807 18 13.1848 18ZM4.04297 4.00781C3.55757 4.00781 3.16406 4.40132 3.16406 4.88672C3.2105 6.05285 4.87589 6.05197 4.92188 4.88672C4.92188 4.40132 4.52837 4.00781 4.04297 4.00781ZM4.04297 8.12109C3.55757 8.12109 3.16406 8.5146 3.16406 9C3.2105 10.1661 4.87589 10.1653 4.92188 9C4.92188 8.5146 4.52837 8.12109 4.04297 8.12109ZM4.04297 12.2695C3.55757 12.2695 3.16406 12.663 3.16406 13.1484C3.2105 14.3146 4.87589 14.3137 4.92188 13.1484C4.92188 12.663 4.52837 12.2695 4.04297 12.2695Z" fill="#004AAD"/>
</g>
<defs>
<clipPath id="clip0_72_188">
<rect width="18" height="18" fill="white"/>
</clipPath>
</defs>
</svg>
