<svg width="32" height="32" viewBox="0 0 32 32" fill="none" xmlns="http://www.w3.org/2000/svg">
<line x1="0.98288" y1="5.4964" x2="31.0171" y2="5.4964" stroke="#222222" stroke-width="1.75"/>
<line x1="12.8896" y1="25.5468" x2="19.0677" y2="25.5468" stroke="#222222" stroke-width="1.75"/>
<line x1="11.0377" y1="29.4886" x2="20.9249" y2="29.4886" stroke="#222222" stroke-width="1.75"/>
<line x1="27.9608" y1="6.3714" x2="27.9608" y2="1.63641" stroke="#222222" stroke-width="1.75"/>
<mask id="path-5-inside-1_2128_218" fill="white">
<path d="M3.01163 5.07129H28.8358V21.4211C28.8358 21.9734 28.3881 22.4211 27.8358 22.4211H4.01163C3.45934 22.4211 3.01163 21.9734 3.01163 21.4211V5.07129Z"/>
</mask>
<path d="M3.01163 5.07129H28.8358V21.4211C28.8358 21.9734 28.3881 22.4211 27.8358 22.4211H4.01163C3.45934 22.4211 3.01163 21.9734 3.01163 21.4211V5.07129Z" stroke="#222222" stroke-width="3.5" mask="url(#path-5-inside-1_2128_218)"/>
<mask id="path-6-inside-2_2128_218" fill="white">
<path d="M12.1106 12.6791C12.1106 12.1269 12.5583 11.6791 13.1106 11.6791H18.8654C19.4177 11.6791 19.8654 12.1269 19.8654 12.6791V22.4211H12.1106V12.6791Z"/>
</mask>
<path d="M12.1106 12.6791C12.1106 12.1269 12.5583 11.6791 13.1106 11.6791H18.8654C19.4177 11.6791 19.8654 12.1269 19.8654 12.6791V22.4211H12.1106V12.6791Z" stroke="#222222" stroke-width="3.5" mask="url(#path-6-inside-2_2128_218)"/>
<circle cx="24.0229" cy="9.56012" r="1" fill="#222222"/>
</svg>
