<svg width="34" height="34" viewBox="0 0 34 34" fill="none" xmlns="http://www.w3.org/2000/svg">
<path d="M19.1925 34H9.43082C5.03685 34 1.46207 30.4252 1.46207 26.0312V7.96875C1.46207 3.57478 5.03685 0 9.43082 0H21.6496C26.0435 0 29.6183 3.57478 29.6183 7.96875V17.7305C29.6183 18.464 29.0237 19.0586 28.2902 19.0586C27.5567 19.0586 26.9621 18.464 26.9621 17.7305V7.96875C26.9621 5.03944 24.5789 2.65625 21.6496 2.65625H9.43082C6.5015 2.65625 4.11832 5.03944 4.11832 7.96875V26.0312C4.11832 28.9606 6.5015 31.3438 9.43082 31.3438H19.1925C19.9261 31.3438 20.5207 31.9384 20.5207 32.6719C20.5207 33.4054 19.9261 34 19.1925 34ZM31.1204 32.5802C33.0105 30.6901 33.0105 27.6146 31.1204 25.7246L26.4647 21.0689C25.1192 19.7234 23.4216 18.815 21.5555 18.4419L17.7927 17.6898C17.3574 17.6029 16.9073 17.7391 16.5933 18.0531C16.2793 18.367 16.143 18.8171 16.23 19.2525L16.9821 23.0154C17.3551 24.8814 18.2635 26.579 19.609 27.9245L24.2647 32.5802C25.2097 33.5252 26.4511 33.9977 27.6925 33.9977C28.9339 33.9977 30.1753 33.5252 31.1204 32.5802ZM21.0348 21.0467C22.3849 21.3165 23.613 21.9736 24.5864 22.9471L29.2421 27.6028C29.656 28.0167 29.8839 28.567 29.8839 29.1523C29.8839 29.7376 29.656 30.288 29.2421 30.7018C28.8281 31.1156 28.2779 31.3438 27.6925 31.3438C27.1072 31.3438 26.5569 31.1158 26.143 30.7019L21.4873 26.0462C20.5139 25.0727 19.8567 23.8447 19.5869 22.4947L19.2251 20.6849L21.0348 21.0467Z" fill="#004AAD"/>
<path d="M9.96094 17.3984H13.4141C14.1476 17.3984 14.7422 16.8038 14.7422 16.0703C14.7422 15.3368 14.1476 14.7422 13.4141 14.7422H9.96094C9.22741 14.7422 8.63281 15.3368 8.63281 16.0703C8.63281 16.8038 9.22741 17.3984 9.96094 17.3984Z" fill="#FF914D"/>
<path d="M12.75 20.0547C13.4835 20.0547 14.0781 20.6493 14.0781 21.3828C14.0781 22.1163 13.4835 22.7109 12.75 22.7109H9.96094C9.22741 22.7109 8.63281 22.1163 8.63281 21.3828C8.63281 20.6493 9.22741 20.0547 9.96094 20.0547H12.75Z" fill="#FF914D"/>
<path d="M14.3438 25.3672C15.0773 25.3672 15.6719 25.9618 15.6719 26.6953C15.6719 27.4288 15.0773 28.0234 14.3438 28.0234H9.96094C9.22741 28.0234 8.63281 27.4288 8.63281 26.6953C8.63281 25.9618 9.22741 25.3672 9.96094 25.3672H14.3438Z" fill="#FF914D"/>
<path d="M22.9102 10.8906C23.6437 10.8906 24.2383 11.4852 24.2383 12.2188C24.2383 12.9523 23.6437 13.5469 22.9102 13.5469H20.6523C18.0892 13.5469 16.0039 11.4616 16.0039 8.89844V6.64062C16.0039 5.9071 16.5985 5.3125 17.332 5.3125C18.0656 5.3125 18.6602 5.9071 18.6602 6.64062V8.89844C18.6602 9.99693 19.5539 10.8906 20.6523 10.8906H22.9102Z" fill="#FF914D"/>
</svg>
