<svg width="24" height="24" viewBox="0 0 24 24" fill="none" xmlns="http://www.w3.org/2000/svg">
<path fill-rule="evenodd" clip-rule="evenodd" d="M6.65908 10.5223C6.23908 10.5223 5.90908 10.1823 5.90908 9.7723C5.90908 9.3523 6.23908 9.0223 6.65908 9.0223H15.1491C15.5691 9.0223 15.8991 9.3523 15.8991 9.7723C15.8991 10.1823 15.5691 10.5223 15.1491 10.5223H6.65908ZM17.2891 11.8323C17.9646 11.8323 18.6176 11.9448 19.2286 12.1633C19.3632 12.2114 19.5091 12.1143 19.5091 11.9713V8.2123C19.5091 6.8023 19.0791 5.6323 18.2691 4.8123C17.5491 4.0923 16.5191 3.6823 15.2891 3.5823V2.6123C15.2891 2.2023 14.9591 1.8623 14.5391 1.8623C14.1291 1.8623 13.7891 2.2023 13.7891 2.6123V6.1623C13.7291 6.1823 13.6591 6.2023 13.5891 6.2023C13.1791 6.2023 12.8391 5.8723 12.8391 5.4523V3.7323C12.8391 3.62185 12.7495 3.5323 12.6391 3.5323H8.01908V2.6123C8.01908 2.2023 7.67908 1.8623 7.26908 1.8623C6.85908 1.8623 6.51908 2.2023 6.51908 2.6123V6.1623C6.44908 6.1823 6.38908 6.2023 6.31908 6.2023C5.89908 6.2023 5.56908 5.8723 5.56908 5.4523V3.98906C5.56908 3.85876 5.44605 3.76321 5.32141 3.80118C3.41322 4.38248 2.30908 5.92935 2.30908 8.2123V16.3623C2.30908 19.3423 4.09908 21.1123 7.09908 21.1123H12.0623C12.2246 21.1123 12.321 20.9279 12.2361 20.7896C11.6883 19.8968 11.3791 18.8542 11.3791 17.7323C11.3791 14.4723 14.0291 11.8323 17.2891 11.8323Z" fill="black"/>
<path fill-rule="evenodd" clip-rule="evenodd" d="M19.1433 19.1316C19.0023 19.3656 18.7543 19.4966 18.4983 19.4966C18.3683 19.4966 18.2353 19.4626 18.1153 19.3906L16.8793 18.6526C16.6523 18.5186 16.5143 18.2736 16.5143 18.0096V16.4226C16.5143 16.0086 16.8503 15.6726 17.2643 15.6726C17.6783 15.6726 18.0143 16.0086 18.0143 16.4226V17.5836L18.8833 18.1036C19.2393 18.3156 19.3553 18.7756 19.1433 19.1316ZM17.2863 13.3286C14.8573 13.3286 12.8823 15.3046 12.8823 17.7336C12.8823 20.1616 14.8573 22.1376 17.2863 22.1376C19.7153 22.1376 21.6913 20.1616 21.6913 17.7336C21.6913 15.3046 19.7153 13.3286 17.2863 13.3286Z" fill="black"/>
</svg>
