<svg width="14" height="14" viewBox="0 0 14 14" fill="none" xmlns="http://www.w3.org/2000/svg">
<g clip-path="url(#clip0_13_98)">
<path d="M7.94366 12.4641C7.69073 12.7009 7.35257 12.8334 7.00064 12.8334C6.64872 12.8334 6.31062 12.7009 6.05763 12.4641C3.74093 10.2819 0.636277 7.84405 2.15032 4.30482C2.96895 2.3912 4.93403 1.16669 7.00064 1.16669C9.06728 1.16669 11.0324 2.3912 11.851 4.30482C13.3631 7.83961 10.2661 10.2894 7.94366 12.4641Z" stroke="#FF914C" stroke-width="1.5"/>
<path d="M9.04167 6.41667C9.04167 7.54425 8.12758 8.45833 7 8.45833C5.87242 8.45833 4.95833 7.54425 4.95833 6.41667C4.95833 5.28908 5.87242 4.375 7 4.375C8.12758 4.375 9.04167 5.28908 9.04167 6.41667Z" stroke="#FF914C" stroke-width="1.5"/>
</g>
<defs>
<clipPath id="clip0_13_98">
<rect width="14" height="14" fill="white"/>
</clipPath>
</defs>
</svg>
